<svg id="Ebene_2" data-name="Ebene 2" xmlns="http://www.w3.org/2000/svg" viewBox="0 0 754.56 417.91"><defs><style>.cls-1{fill:#404040;}.cls-2{fill:#fefefe;}.cls-3{fill:#302f2f;}</style></defs><title>About</title><path d="M94.78,185.63l37.12-19.12V172l-31.28,15.68v.16l31.28,15.68v5.52L94.78,190Z" transform="translate(-90.94 -142.68)"/><path d="M143,182.43c0-4.56-.08-8.48-.32-12.08h6.16l.24,7.6h.32c1.76-5.2,6-8.48,10.72-8.48a7.61,7.61,0,0,1,2,.24v6.64a10.58,10.58,0,0,0-2.4-.24c-5,0-8.48,3.76-9.44,9a19.82,19.82,0,0,0-.32,3.28v20.64h-7Z" transform="translate(-90.94 -142.68)"/><path d="M172.3,191c.16,9.52,6.24,13.44,13.28,13.44a25.46,25.46,0,0,0,10.72-2l1.2,5a31.36,31.36,0,0,1-12.88,2.4c-11.92,0-19-7.84-19-19.52s6.88-20.88,18.16-20.88c12.64,0,16,11.12,16,18.24a26.55,26.55,0,0,1-.24,3.28Zm20.64-5c.08-4.48-1.84-11.44-9.76-11.44-7.12,0-10.24,6.56-10.8,11.44Z" transform="translate(-90.94 -142.68)"/><path d="M209.18,209.07V175.71h-5.44v-5.36h5.44v-1.84c0-5.44,1.2-10.4,4.48-13.52a13.47,13.47,0,0,1,9.44-3.6,16.32,16.32,0,0,1,6,1.12l-1,5.44a10.51,10.51,0,0,0-4.48-.88c-6,0-7.52,5.28-7.52,11.2v2.08h9.36v5.36h-9.36v33.36Z" transform="translate(-90.94 -142.68)"/><path d="M268.38,190l-37.12,19v-5.52l31.52-15.68v-.16L231.26,172v-5.52l37.12,19Z" transform="translate(-90.94 -142.68)"/><path d="M292.86,184c5.68,0,6.48-3.12,6.48-5.92a47.74,47.74,0,0,0-.64-6.72,46.63,46.63,0,0,1-.64-6.64c0-7.36,4.8-10.48,11.6-10.48h1.68v4.4H309.9c-4.72,0-6.32,2.56-6.32,6.88a35,35,0,0,0,.56,5.68,37.33,37.33,0,0,1,.56,6.08c.08,5.12-2.16,7.68-5.76,8.64v.16c3.6.88,5.84,3.6,5.76,8.72a36.52,36.52,0,0,1-.56,6.08,36,36,0,0,0-.56,5.77c0,4.47,1.84,6.95,6.32,6.95h1.44V218h-1.68c-6.64,0-11.6-2.89-11.6-11a45.67,45.67,0,0,1,.64-6.56,44.44,44.44,0,0,0,.64-6.48c0-2.48-.8-5.92-6.48-5.92Z" transform="translate(-90.94 -142.68)"/><path d="M315.58,184c5.68,0,6.48-3.12,6.48-5.92a47.74,47.74,0,0,0-.64-6.72,46.63,46.63,0,0,1-.64-6.64c0-7.36,4.8-10.48,11.6-10.48h1.68v4.4h-1.44c-4.72,0-6.32,2.56-6.32,6.88a35,35,0,0,0,.56,5.68,37.33,37.33,0,0,1,.56,6.08c.08,5.12-2.16,7.68-5.76,8.64v.16c3.6.88,5.84,3.6,5.76,8.72a36.52,36.52,0,0,1-.56,6.08,36,36,0,0,0-.56,5.77c0,4.47,1.84,6.95,6.32,6.95h1.44V218h-1.68c-6.64,0-11.6-2.89-11.6-11a45.67,45.67,0,0,1,.64-6.56,44.44,44.44,0,0,0,.64-6.48c0-2.48-.8-5.92-6.48-5.92Z" transform="translate(-90.94 -142.68)"/><path d="M369.5,207.63a25.93,25.93,0,0,1-11.12,2.24c-11.68,0-19.28-7.92-19.28-19.76s8.16-20.56,20.8-20.56a23.53,23.53,0,0,1,9.76,2l-1.6,5.44a16.33,16.33,0,0,0-8.16-1.84c-8.88,0-13.68,6.56-13.68,14.64,0,9,5.76,14.48,13.44,14.48a20,20,0,0,0,8.64-1.92Z" transform="translate(-90.94 -142.68)"/><path d="M385.58,159.47a4.36,4.36,0,0,1-8.72,0,4.29,4.29,0,0,1,4.4-4.4A4.18,4.18,0,0,1,385.58,159.47Zm-7.84,49.6V170.35h7v38.72Z" transform="translate(-90.94 -142.68)"/><path d="M404.94,159.23v11.12H415v5.36H404.94v20.88c0,4.8,1.36,7.52,5.28,7.52a15.66,15.66,0,0,0,4.08-.48l.32,5.28a17.23,17.23,0,0,1-6.24,1c-3.28,0-5.92-1-7.6-3-2-2.08-2.72-5.52-2.72-10.08V175.71h-6v-5.36h6v-9.28Z" transform="translate(-90.94 -142.68)"/><path d="M426.38,191c.16,9.52,6.24,13.44,13.28,13.44a25.46,25.46,0,0,0,10.72-2l1.2,5a31.36,31.36,0,0,1-12.88,2.4c-11.92,0-19-7.84-19-19.52s6.88-20.88,18.16-20.88c12.64,0,16,11.12,16,18.24a26.55,26.55,0,0,1-.24,3.28ZM447,186c.08-4.48-1.84-11.44-9.76-11.44-7.12,0-10.24,6.56-10.8,11.44Z" transform="translate(-90.94 -142.68)"/><path d="M98.14,266.35,103.26,286c1.12,4.32,2.16,8.32,2.88,12.32h.24c.88-3.92,2.16-8.08,3.44-12.24l6.32-19.76h5.92l6,19.36c1.44,4.64,2.56,8.72,3.44,12.64h.24a116.43,116.43,0,0,1,3-12.56l5.52-19.44h7L134.7,305.07h-6.4l-5.92-18.48a129,129,0,0,1-3.44-12.72h-.16a114.57,114.57,0,0,1-3.52,12.8L109,305.07h-6.4L90.94,266.35Z" transform="translate(-90.94 -142.68)"/><path d="M157.34,287c.16,9.52,6.24,13.44,13.28,13.44a25.46,25.46,0,0,0,10.72-2l1.2,5a31.36,31.36,0,0,1-12.88,2.4c-11.92,0-19-7.84-19-19.52s6.88-20.88,18.16-20.88c12.64,0,16,11.12,16,18.24a26.55,26.55,0,0,1-.24,3.28ZM178,282c.08-4.48-1.84-11.44-9.76-11.44-7.12,0-10.24,6.56-10.8,11.44Z" transform="translate(-90.94 -142.68)"/><path d="M193.18,305.07c.16-2.64.32-6.56.32-10v-46.8h7v24.32h.16c2.48-4.32,7-7.12,13.2-7.12,9.6,0,16.4,8,16.32,19.76,0,13.84-8.72,20.72-17.36,20.72-5.6,0-10.08-2.16-13-7.28h-.24l-.32,6.4Zm7.28-15.52a13.18,13.18,0,0,0,.32,2.56,10.86,10.86,0,0,0,10.56,8.24c7.36,0,11.76-6,11.76-14.88,0-7.76-4-14.4-11.52-14.4a11.22,11.22,0,0,0-10.72,8.64,13.87,13.87,0,0,0-.4,2.88Z" transform="translate(-90.94 -142.68)"/><path d="M235.42,300.91a4.73,4.73,0,0,1,4.8-5c2.8,0,4.72,2.08,4.72,5s-1.84,5-4.8,5A4.71,4.71,0,0,1,235.42,300.91Z" transform="translate(-90.94 -142.68)"/><path d="M252,300.91a4.73,4.73,0,0,1,4.8-5c2.8,0,4.72,2.08,4.72,5s-1.84,5-4.8,5A4.71,4.71,0,0,1,252,300.91Z" transform="translate(-90.94 -142.68)"/><path d="M268.54,300.91a4.73,4.73,0,0,1,4.8-5c2.8,0,4.72,2.08,4.72,5s-1.84,5-4.8,5A4.71,4.71,0,0,1,268.54,300.91Z" transform="translate(-90.94 -142.68)"/><path d="M301.42,284.11c-5.69,0-6.48,3.44-6.48,5.92a44.42,44.42,0,0,0,.63,6.48,44.15,44.15,0,0,1,.64,6.56c0,8.08-5,11-11.6,11h-1.68v-4.4h1.36c4.48-.08,6.4-2.48,6.4-7a46.34,46.34,0,0,0-.56-5.76,36.33,36.33,0,0,1-.64-6.08c0-5.12,2.24-7.84,5.76-8.72V282c-3.52-1-5.76-3.52-5.76-8.64a37.25,37.25,0,0,1,.64-6.08,45.1,45.1,0,0,0,.56-5.68c0-4.32-1.68-6.8-6.32-6.88h-1.44v-4.4h1.6c6.8,0,11.68,3.12,11.68,10.48a45.22,45.22,0,0,1-.64,6.64,47.72,47.72,0,0,0-.63,6.72c0,2.8.79,5.92,6.48,5.92Z" transform="translate(-90.94 -142.68)"/><path d="M324.13,284.11c-5.68,0-6.48,3.44-6.48,5.92a44.44,44.44,0,0,0,.64,6.48,45.53,45.53,0,0,1,.64,6.56c0,8.08-5,11-11.6,11h-1.68v-4.4H307c4.48-.08,6.4-2.48,6.4-7a48.33,48.33,0,0,0-.56-5.76,36.33,36.33,0,0,1-.64-6.08c0-5.12,2.24-7.84,5.76-8.72V282c-3.52-1-5.76-3.52-5.76-8.64a37.25,37.25,0,0,1,.64-6.08,47,47,0,0,0,.56-5.68c0-4.32-1.68-6.8-6.32-6.88h-1.44v-4.4h1.6c6.8,0,11.68,3.12,11.68,10.48a46.63,46.63,0,0,1-.64,6.64,47.74,47.74,0,0,0-.64,6.72c0,2.8.8,5.92,6.48,5.92Z" transform="translate(-90.94 -142.68)"/><path class="cls-1" d="M526,142.68V342l319.5,27.95V170.64Zm4.67,5.44,1.18.1L642,252.47l-110.11,85-1.18-.1V148.12Zm309.11,27,1.05.09V364.49l-1.05-.1-107.62-104-44.58,35.3,152.2-120.5Zm-302.15-26.4,296.23,25.91L687.44,290.59ZM644.44,255.51l43,40.74L729.53,263,833.94,363.88,537.61,338Z" transform="translate(-90.94 -142.68)"/><g id="Layer_1"><g id="_2279374912" data-name=" 2279374912"><path class="cls-2" d="M290.35,391.86c2.45,4.49,7.07,9.93,10,14.72,1.9,3.2,5,7.51,7.34,11.18.78,1.23,1.6,2.48,2.38,3.64,1.63,2.38,3.16,5.06,4.76,7.58L329,451.72c.79,1.29,1.64,2.52,2.38,3.77,6.84,11.25,14.28,22.95,21.32,34.06,1.66,2.62,3.22,4.83,4.89,7.31L365,508a35,35,0,0,1,2.38,3.61c1.09-.21,7.65-3.5,9.18-4.25L403,493.94c11.79-6,23.59-12.07,36.1-17.13,19.47-7.86,44.08-15.3,66.18-12.17a87.43,87.43,0,0,1,16.18,3.77,43.67,43.67,0,0,0,4.76,1.77c-2.21-2-4.12-4.25-6.22-6.33L517,460.59c-1.8-1.73-4.42-4.62-6.12-6.52l-4.59-4.9c-1.33-1.49-2.79-3.4-4.35-5-2.38-2.38-5-5.88-7.45-8.32-.54-.58-.91-1.16-1.39-1.77s-1-1-1.53-1.6l-37.25-42.83a5.29,5.29,0,0,1-.75-.81l-7.48-8.3c-.61-.64-1-1-1.56-1.59l-6.19-6.33a43.51,43.51,0,0,0-3.19-3.12l-3.23-3.1c-.58-.54-.92-.95-1.5-1.53a61.89,61.89,0,0,0-14.85-10.4c-20.36-10-41.37-7.78-61.66.41A174.62,174.62,0,0,0,332.5,365c-1.29.79-2.69,1.43-4.08,2.25-2.72,1.59-5.17,3.09-7.78,4.69s-5.31,3.16-7.79,4.86c-2.11,1.43-21.75,14.17-22.57,15Z" transform="translate(-90.94 -142.68)"/><path class="cls-2" d="M431.41,362a21,21,0,0,0,1.7,1.7c.58.55,1.06,1.13,1.63,1.67l6.77,6.56a15.32,15.32,0,0,1,1.59,1.7l6.6,6.76c.64.65.88,1.13,1.49,1.81,1.16,1.32,2,2.2,3.3,3.43l2.31,2.68c.85,1.19,2.86,3.06,3.95,4.39.51.64.95,1.15,1.53,1.77L487,423c.51.62,1,1.13,1.53,1.77,1.67,2,2.79,3.5,4.66,5.37a9.09,9.09,0,0,1,.78.92l6.93,8c.55.61,1.06,1.26,1.6,1.87l4.73,5.16c.54.58,1,1.3,1.52,1.91.92,1.12,3.74,3.77,4.87,5l4.86,5.16c.54.62,1,1.16,1.56,1.74l3.19,3.53c1.09,1.23,2.18,2,3.34,3.27a4.82,4.82,0,0,0,.95.78c1.6,1.26,4.72,5,6,5.57a31.33,31.33,0,0,1,4.12-8.8c1.83-3.09,6.25-7.51,9.41-10,1.23-.95,2.38-1.77,3.78-2.69,23.48-15.29,62.95-21.14,91.06-25,5.09-.72,44-5.65,45.14-6.39a17.7,17.7,0,0,0-3.3-2.62c-5.54-3.77-11.39-8.43-17.1-12.31l-6.86-4.89c-2.28-1.7-4.66-3.2-6.9-4.86L632.23,381c-4.73-3.09-9.21-6.49-13.94-9.62-2.31-1.53-4.69-3.2-7-4.79s-4.62-3.1-6.9-4.73-4.62-3.19-7-4.82-4.63-3.27-7-4.8c-5.61-3.7-11.76-8.26-17.34-12-3.5-2.31-6.93-4.93-10.4-7.28-4.42-2.95-2.41-2-8.77-1-11.93,1.84-21.62,1.63-33.72,1.67l-23.25.1c-3.77,0-8-.17-11.69.07-12.17.78-26.55,3.91-36.64,10.26-1.29.82-2.38,1.57-3.47,2.41a49.89,49.89,0,0,0-6.32,5.44c-2,1.91-7,8.13-7.58,9.93Z" transform="translate(-90.94 -142.68)"/><path class="cls-3" d="M383.28,536.87,390,533c2.27-1.33,4.48-2.62,6.86-3.91,4.63-2.55,9.18-5.2,14-7.72,15.78-8.19,26.79-14.07,43.58-21.14,14.92-6.29,35.25-13.66,51.77-13.6,1.46,0,5.13-.06,6.18.51a258.48,258.48,0,0,0-69.47,20c-2.62,1.19-5.2,2.24-7.72,3.46l-51.87,26.31Zm-15.87,8.36.1-1.8a38.35,38.35,0,0,0,4-2.38c1.39-.85,2.65-1.6,4-2.42,8-4.75,16.35-9.75,24.51-14.24,25.15-13.87,61.76-33.24,90.41-38.44a77.68,77.68,0,0,1,11.73-1.29,42.82,42.82,0,0,1,9,.64l2,.41c.85.31.34.07.58.41-.58.44-.17,0-.24.44-6.05-1.67-17.13-.1-23.18,1.12-28.79,5.78-64,24.44-90.18,38.72-8,4.38-16.66,9.45-24.58,14.17a78,78,0,0,1-8.19,4.66Zm.13-2.72.07-1.9c1.63-1.23,31.17-17.88,32.84-18.84,11-6.25,22.19-12.16,33.75-18a264.12,264.12,0,0,1,36.3-15.5c10.13-3.34,22.1-6.05,33.14-5.48,5.95.31,6.36.79,11.42,1.64-.23.71-.44.47-.71,1-6.09-2.34-16.69-1.49-23.35-.34-24,4.25-52.48,17.95-74.07,29.24-13.12,6.86-28.55,15.63-41.23,23.35-1.09.64-7.51,4.69-8.19,4.83Zm.07-2.82v-2.93l8.13-4.65c28.28-16,65-37,95.61-45.89,10.81-3.13,22.16-5.3,33.75-4.55a59,59,0,0,1,8.5,1.12l1.29.27,1,.27c.31.21,0-.1.24.24l-.44.17a1.25,1.25,0,0,1-.68-.1,54.87,54.87,0,0,0-9.76-1.57c-23.65-1.63-50.4,10.51-70.46,20.5q-8.67,4.29-17.1,8.87c-2.82,1.57-5.6,3-8.46,4.59-12.78,6.93-24.85,14.11-37.36,21.18a38,38,0,0,1-4.24,2.41Zm.07-3.77,0-2c.28-.75,29.71-16.86,32.74-18.39,5.64-2.86,11.11-5.92,16.86-8.71,26.37-12.74,68.76-32.59,100.17-24.54-.62.79-.65.51-2.18.17A69.16,69.16,0,0,0,494.46,481c-21.07,1.8-40.92,10.23-59.28,18.63-5.94,2.72-11.48,5.71-17.3,8.53-4.52,2.17-12.4,6.49-17,9-10,5.5-19.24,10.81-29,16.35A42.05,42.05,0,0,1,367.68,535.92Zm.07-3.1.07-2.11c4.28-2.61,11.69-6.76,16.24-9.24,5.48-3,11-6,16.62-8.94,26.79-14.07,63.84-31,94.8-33.18a91.2,91.2,0,0,1,12.48,0c2,.14,3.87.34,5.85.65.91.13,1.8.27,2.68.44l2,.41c.91.27.37,0,.61.37-1,.17.13.71-2.28.17a58.78,58.78,0,0,0-8.46-1.29c-24.1-2.08-51.63,7.75-72.64,17.2-12,5.4-23.49,10.94-34.67,17l-16.73,9.11c-1.49.82-15.87,9.15-16.68,9.42Zm.1-2.89c-.1-2.51-.27-1.93,2.79-3.67,10.06-5.71,19.07-10.64,29.43-16.08,5.61-2.95,11.56-5.81,17.44-8.56,23.79-11.15,53.13-22.47,80-23.93,7.07-.37,17.61,0,24,2a1.94,1.94,0,0,1-2.08.68c-32.15-7.68-72.57,9.31-100.61,22.43-14.44,6.77-32.73,16.59-46.74,24.72-.85.51-3.67,2-4.14,2.44ZM368,527l0-2.25,16.59-9.24c17.3-9.08,34.19-17.88,52.68-24.82,12.68-4.76,25.6-9.14,39.81-11.86,11.66-2.21,23.72-3.4,35.72-2.14,1.84.2,10.1,1.26,11,2-1.16.13-.41.71-2.45.2-26.61-6.56-60,3.81-83.82,13.29a514.91,514.91,0,0,0-52.79,25.43l-8.39,4.65c-2.82,1.57-5.54,3.2-8.26,4.73Zm0-3.06,0-1.84c.91-.75,15.46-8.73,16.79-9.48,32.8-18,80.45-40.08,118.62-38.75a82.22,82.22,0,0,1,22.51,3.84l-.41.24c-.92.37-3.13-.41-4.69-.72-1.91-.4-3.74-.68-5.68-.95-11.9-1.6-24.61-.64-36.17,1.5-26.51,4.86-53.39,16.11-76.95,27.84-9.79,4.86-20.33,10.46-29.81,15.94C370.84,522.32,369.38,523.24,368,523.92Zm.07-2.79v-2.41c.78-.75,15.84-9,17.06-9.66,36.17-19.37,92.69-46.36,133.48-35.82,2.48.64,8.19,2.44,9.86,3.6l-.17.07c-1.19.47-1.19.47-2.18.13-13.59-4.79-30.59-4.62-44.46-2.44-15,2.34-28.68,6.59-41.87,11.48-23.22,8.64-46,20.47-67.44,32.6a38.17,38.17,0,0,1-4.32,2.42Zm.1-3.43v-3.4c1.29-.82,3.13-1.5,4.62-2.25s3.06-1.53,4.66-2.24c3.16-1.46,6-3,9.18-4.59l13.66-7c6.29-3.27,16.93-8.74,23-11.43l9.49-4.31A212.33,212.33,0,0,1,463,471.33c23-6.32,42.19-7.14,64.11,2.18a29.37,29.37,0,0,1,4,2l.48.41c-1.91,1.12-2.86.1-4.9-.71-26.31-10.78-60.2-2.28-85,7a439.49,439.49,0,0,0-55.91,25.73l-17.54,9.75Zm186.71-42c.51-.92,5.27-3.78,6.08-4.22,15.84-9.17,37.36-13.76,55.51-16.14,12.37-1.6,24.71-2.76,37.43-3.5,13.32-.79,26.47-.92,39.9-1.33a12.31,12.31,0,0,1,.82,3.2c-13.36.27-27,0-40.39-.11A290.2,290.2,0,0,0,615.91,456c-15.73,2.14-26.48,4.79-40.38,10.26-2.48,1-4.69,2-7.07,3.13s-4.48,2.18-6.76,3.43l-4.79,2.79c-.75.41-1.26.1-2,.1Zm-1.56-.48c1-1.94,9.75-7.17,12.34-8.53a95.3,95.3,0,0,1,14.78-6,209.55,209.55,0,0,1,34.2-7.41c19.4-2.72,38.44-3.77,58.09-4.38,3.33-.1,6.69-.17,10.06-.24s7.31.1,10.4-.2l.27,1.39c-26,.27-52.72,1.43-77.91,4.93-19.1,2.65-42.89,7.61-59,18.66-1.67,1.16-2.24,2-3.3,1.8Zm-1.77-.37,2.82-2.62A80.61,80.61,0,0,1,578,458.72c25-9.62,65.91-11.42,93.72-12.51,4.69-.17,16.65-.85,20.53-.74,0,0,0,0,.06.1a13.23,13.23,0,0,1,.55,2.24c-34.06.21-81.44,2-113.73,12.58-8.4,2.75-17.68,7-24.34,12.54C553.13,474.32,552.76,475.14,551.57,474.87Zm-1.46-.24a76.74,76.74,0,0,1,12.27-9.31A95.78,95.78,0,0,1,576.86,458c10.74-4.35,22-7,34.29-9.17,18-3.2,40.83-4.76,59.59-5.68,3.71-.17,18.32-1,20.9-.82a7.39,7.39,0,0,1,.45,2.49c-26.92,1-54.46,1.73-80.63,5.3-19.88,2.72-39.73,7.85-55.34,19.92-1,.78-1.9,1.49-2.92,2.38l-2.14,1.9c-.31.34-.34.51-1,.37Zm-1.67-.14c1.5-2,10.51-8.19,12.61-9.48a101.37,101.37,0,0,1,14.69-7.58,174.76,174.76,0,0,1,34.4-10.06c24.4-4.76,50.74-6.42,75.79-7.48a38.91,38.91,0,0,1,5.24-.13c.2.78.2,1.08.34,1.83-23.56.44-58.43,2.75-81.34,6.7-19.61,3.36-40,9.34-55.41,21.48l-4.48,3.7c-.61.58-.82,1.16-1.84,1.06Zm-1.9-.1c.44-.81,5.47-4.62,6.15-5.13,15.91-12.1,36.27-18.9,56-23.32,21.42-4.79,48.47-7.27,71-8.33,3.3-.17,7.72-.61,10.91-.44a3.73,3.73,0,0,1,.31,1.74c-.65.17-9.28.4-10.74.47-24,1.19-47.62,2.79-71.18,7.45-17.64,3.46-34.67,8.83-49.29,18.15a85,85,0,0,0-11.21,8.43c-.58.47-.89,1-2,.95Zm-2.38,0a26.69,26.69,0,0,1,3-2.69c1.09-.88,2.08-1.7,3.3-2.58,17.06-12.58,35.52-19.51,56.8-24.58,22.4-5.3,48.61-8.09,72.06-9.28l10.33-.47a1.89,1.89,0,0,1,.41,0c.44.07.51.17.51,1.57-.61.27-19.34,1.05-21.89,1.19-7.07.44-14.28,1-21.28,1.76a351,351,0,0,0-39.87,6.19c-20.66,4.66-43.78,12.75-59.69,26.72-.47.44-1.05.88-1.56,1.32-.92.75-.51.95-2.17.85Zm-2.18.2c.79-1.56,11-9,13.33-10.43,26.75-17.13,58.8-24.54,90.55-28.59,11.83-1.5,32.6-3.33,44.29-3.43,0,.75.14,1.12.14,1.9-26.14.61-59.15,4-84.3,10-21.08,5.06-40.42,12.51-57.14,25.36-1.09.84-2.24,1.76-3.23,2.65-2,1.73-1.77,2-3.6,2.48Zm-2.07.07a91.42,91.42,0,0,1,13-11.15c15.6-10.91,31.41-17.1,50.68-22.37,24.06-6.56,54.49-9.92,80.18-11.08,1.87-.06,4.22-.3,6-.2,0,0,0,.07,0,.14a3.86,3.86,0,0,1,.14,1.36c-.75.3-9.82.54-11.52.64-3.74.21-7.48.44-11.25.75-41,3.26-92.15,11.93-123.73,39.46l-2.41,2.18c-.41.37-.45.34-1.19.34Zm-2.48.27a11,11,0,0,1,1.36-1.63c8.12-9.08,15.23-14.24,26.51-20.56,10.71-6,24-10.61,36.07-14,26.75-7.54,58.73-10.84,88.27-11.83a6.46,6.46,0,0,1,.14,2.11c-.65.24-10.13.51-11.73.61-42.22,2.48-97.32,10-130.36,37-1.22,1-2.17,1.87-3.33,2.82-.57.48-1.05.95-1.59,1.43a21.34,21.34,0,0,0-1.6,1.56C539.06,474.43,539.13,474.9,537.43,474.9Zm-1.5.17c0-1,1.13-3.87,1.53-4.83a33.22,33.22,0,0,1,5.07-7.85l6.69-6.22a67.58,67.58,0,0,1,12-7.27C584.64,437.72,618,432.55,644.3,429c11.11-1.5,23.11-3,34.16-4.62,1.76-.27,10-1.74,11.08-1.63l0,3.43c-8.09.41-16,.75-24,1.36-34.19,2.55-71.69,9.07-101.53,25.05a90.81,90.81,0,0,0-26.51,21c-.48.54-.82,1.42-1.63,1.42Zm-171,65.3c0,1-.14,2.17-.2,3.19a40.11,40.11,0,0,1-2.76-4c-.95-1.33-1.76-2.66-2.68-4.05-8.94-13.43-18.26-26.92-26.72-40.62-3.43-5.57-7-10.77-10.47-16.38-.88-1.43-1.73-2.82-2.62-4.11l-5.23-8.26c-4.08-6.73-8.87-13.8-13-20.53L285.35,421.2c-.91-1.4-1.73-2.76-2.65-4.08-.47-.65-2.55-3.33-2.27-4,.51.44,21.21,31.71,21.55,32.22,3.63,5.47,7.13,10.74,10.77,16.18l48.4,72.6c.62.92,3.81,5.27,3.84,6.22Zm.2,8.8c1.36-.27,7.48-3.57,9.08-4.42l8.87-4.62c1.43-.71,2.86-1.56,4.32-2.28s3-1.56,4.38-2.34c2.86-1.63,5.95-3,8.84-4.66,5.64-3.3,11.83-6.12,17.68-9.18s11.93-5.95,18.15-8.8c5.81-2.69,12.81-5.64,18.79-8,6.5-2.62,13-4.69,20-6.9A225.91,225.91,0,0,1,510.92,490c5.88-.72,2.34.13,6.32-3.88,6.93-7,20.53-9.51,31.1-9a20.46,20.46,0,0,1,5.74,1c3,1.05,1.47,1.43,4.39-.37,10.64-6.6,25.83-12.61,38.27-15.57a201.86,201.86,0,0,1,22.74-4.05c4.12-.51,8.09-.81,12.27-1.12,2.14-.17,4.32-.13,6.46-.27s4.22-.34,6.46-.34c17.91,0,35.79.34,53.67-.1-.17-1.19-2-6.43-2.48-8.12a56.56,56.56,0,0,1-2-8.88,16.44,16.44,0,0,1,2.08,2.82c2,3,3.67,5.31,5.74,8.6.75,1.23,6.7,10.78,7.14,12-2.48.17-10.78.13-13.73.13-13.5,0-27,.24-40.49.92-4.24.2-8.46.68-12.67,1.05s-8.4.75-12.51,1.26c-18.09,2.25-38.92,6.05-55.31,13.77a21.94,21.94,0,0,0-4.35,2.51c-1.32,1.06-2.51,2.11-3.94,3.1C554.46,493.29,539.57,497,523,498.05c-4.32.27-9.11.17-13.5.2-4.93,0-7.14.62-12,1.77-7.45,1.84-14.48,3.88-21.59,6.15a425.68,425.68,0,0,0-40.17,15.06c-3.23,1.39-6.26,2.89-9.49,4.28s-6.45,2.79-9.48,4.29-6.29,2.82-9.38,4.38-6.32,3-9.35,4.59c-1.56.82-3,1.5-4.59,2.31-4.45,2.35-9.48,4.59-13.87,6.94-3,1.59-6.05,3-9.17,4.58-1.57.79-3,1.5-4.59,2.32l-4.76,2.34-5.85-8.9c-4-5.85-7.82-12.11-11.69-17.88l-15.81-24.82c-8.19-12.74-16-26.1-24.06-38.92-1.87-3-3.84-6.08-5.61-9.17-3.36-5.88-7.61-12.27-11.18-18.39-.92-1.6-1.84-2.93-2.76-4.56-2.61-4.65-5.74-9.14-8.39-13.83-1.12-1.94-2.86-3.57-2.11-4.93a12.22,12.22,0,0,1,4.08-3.37c.14,2-1,.92,1.8,4.8,1,1.32,1.91,2.75,2.86,4.18,1.87,2.89,3.6,5.88,5.54,8.53,1.76,2.45,3.67,5.78,5.5,8.53,2.76,4.08,5.48,8.64,8.2,12.75,4.45,6.76,9.24,14.55,13.66,21.48,1.84,2.89,3.64,5.64,5.44,8.6,3.57,5.85,7.34,11.18,10.88,17.1.91,1.56,1.83,2.75,2.75,4.28s1.9,2.75,2.79,4.25c3.39,5.61,7.44,11.52,11.08,17,1.87,2.82,3.7,5.71,5.61,8.46l11.35,16.76ZM280.8,410.8l21.52,31.33c1.8,2.59,3.6,5.17,5.37,7.86,3.36,5.06,7.37,10.64,10.8,15.73l16.22,23.7c3.67,5.3,7.1,10.5,10.81,15.73s7.17,10.54,10.81,15.74c1.83,2.62,3.53,5.24,5.37,7.82.91,1.29,1.73,2.58,2.68,3.91s.89,1.53.78,4.28a4.42,4.42,0,0,1-.17,1.53c-.47-.44-10-14.82-10.6-15.81L281.45,413.17c-.62-.91-1-1.05-.62-2.44Zm.44-2.55,10.67,15.29c3.54,5.13,7.11,10.3,10.71,15.43,7.17,10.27,14.18,20.5,21.35,30.77,8.87,12.71,17.91,25.59,26.65,38.37,1.76,2.58,3.53,5.17,5.37,7.72l8,11.52a9.09,9.09,0,0,1,1.3,2c.2,1.05-.17,2.24.06,3.19-.57-.4-4.62-6.52-5.4-7.64-1.8-2.62-3.57-5.14-5.3-7.75-3.13-4.8-7.31-10.64-10.61-15.5s-7.41-10.57-10.64-15.5c-3.46-5.27-7.17-10.23-10.6-15.5-3.33-5.07-7.17-10.4-10.61-15.5L283,412.63c-1.93-2.82-2.14-2.45-1.66-4.35ZM282,405l.37.38a3.23,3.23,0,0,1,.34.51l.65.95c.44.68.85,1.19,1.29,1.87l18.42,26.78c7.11,10.13,13.91,20.4,21,30.53s13.86,20.36,21,30.52c3.54,5,6.9,10.16,10.47,15.23,3,4.28,6.22,9.24,9.18,13.36.92,1.25.34,1.22.58,2.75-.48-.31-20.5-29.33-21.32-30.52-3.46-5.1-7-10.13-10.57-15.27-7.1-10.09-14.14-20.46-21.21-30.59q-5.4-7.69-10.64-15.33c-6.11-8.9-12.47-17.77-18.52-26.68-.41-.61-1-1.29-1.36-1.94A3.82,3.82,0,0,1,282,405Zm.85-3.26c.78.71,29.43,42.93,31.24,45.55l20.8,30.42c7,10.06,13.87,20.43,20.87,30.52l9.11,13.29c.68,1,.27,1.7.44,3-.71-.61-20.77-30-21.14-30.56-3.54-5.06-6.94-10.13-10.47-15.23-7-10.16-13.94-20.46-21-30.52-8.8-12.54-17.5-25.7-26.31-38.27-.88-1.26-1.73-2.52-2.61-3.85C282,403.52,282,404.34,282.84,401.72Zm1.29-3.26c.51.34,27.16,40.41,30.63,45.54s6.76,10.1,10.19,15.2c6.8,10.16,13.53,20.22,20.4,30.42l19.13,28.52a2.82,2.82,0,0,1,.75,2.55c-.54-.51-4.52-6.5-5.23-7.55-5-7.54-10.51-15.23-15.64-22.84-1.73-2.55-3.47-5-5.2-7.58s-3.43-5.1-5.2-7.58C330.43,470,327,465,323.53,459.88c-6.94-10.17-13.91-20.23-20.81-30.42q-5.19-7.65-10.43-15.27c-.41-.57-9-13-9-13.35A5.86,5.86,0,0,1,284.13,398.46Zm1.87-3.37c.71.75,69.95,105.34,78.25,118a8.07,8.07,0,0,1,1.19,1.94c.17,1-.24,2.1,0,3.09-.71-.51-29-43-31-46-3.44-5.1-6.9-10.2-10.3-15.36s-6.8-10.2-10.23-15.3l-28.35-42.28c-.44-.68-1.16-1.3-.85-2A10,10,0,0,1,286,395.09Zm.51-.71a2.3,2.3,0,0,1,1.36-1.06c1.12,1.09,20.56,30.73,22.06,33l7.14,11.21c1.19,1.87,2.24,3.74,3.43,5.61s2.35,3.81,3.54,5.64c5.88,9.15,11.62,19.11,17.57,28.35l1.77,2.82a25,25,0,0,1,1.73,2.89c-1.16-2.07-5.57-8.33-7.34-11.08-1.19-1.87-2.42-3.64-3.67-5.51l-40.28-60.74C292.32,403.22,287.53,396.21,286.51,394.38Zm3.77-2.59c.82-.85,20.46-13.59,22.57-15,2.48-1.7,5.14-3.23,7.79-4.86s5.06-3.09,7.78-4.69c1.39-.82,2.75-1.46,4.08-2.24a173.21,173.21,0,0,1,21.38-10.17c20.29-8.19,41.3-10.4,61.66-.41a62.72,62.72,0,0,1,14.85,10.41c.58.57.92,1,1.5,1.53l3.23,3.09a36.89,36.89,0,0,1,3.19,3.13l6.19,6.32c.54.58.92.95,1.56,1.6l7.48,8.29a5.89,5.89,0,0,0,.75.82l37.25,42.82c.55.62,1,1,1.53,1.6s.85,1.19,1.39,1.77c2.45,2.45,5.1,6,7.45,8.33,1.56,1.59,3,3.5,4.35,5l4.59,4.9c1.7,1.87,4.32,4.79,6.12,6.52l3.06,3.27c2.07,2.1,4,4.28,6.22,6.32-.85-.14-3.61-1.36-4.76-1.77a90.17,90.17,0,0,0-16.18-3.77c-22.1-3.13-46.71,4.28-66.18,12.17-12.51,5.06-24.34,11.15-36.1,17.13l-26.51,13.39c-1.53.75-8.09,4.05-9.18,4.25a33.81,33.81,0,0,0-2.38-3.6l-7.41-11.12c-1.63-2.48-3.23-4.69-4.89-7.31-7.07-11.11-14.48-22.84-21.32-34.05-.74-1.26-1.59-2.49-2.38-3.78l-14.17-22.74c-1.63-2.48-3.13-5.16-4.76-7.58-.78-1.15-1.6-2.41-2.38-3.63-2.31-3.64-5.44-8-7.34-11.19-2.89-4.79-7.51-10.23-10-14.72ZM431.38,362c.54-1.77,5.61-8,7.58-9.92a47.68,47.68,0,0,1,6.32-5.44c1.09-.85,2.21-1.6,3.47-2.42,10.09-6.39,24.47-9.48,36.64-10.26,3.7-.24,7.95-.07,11.69-.07l23.25-.1c12.1-.07,21.79.17,33.72-1.67,6.36-1,4.35-1.93,8.77,1.06,3.47,2.34,6.9,4.93,10.4,7.27,5.58,3.71,11.69,8.26,17.34,12,2.34,1.52,4.65,3.19,7,4.79s4.59,3.13,7,4.82,4.66,3.13,6.9,4.73,4.63,3.3,7,4.79c4.73,3.13,9.21,6.53,13.94,9.62L653,395.6c2.25,1.67,4.63,3.16,6.9,4.86l6.87,4.9c5.71,3.91,11.56,8.53,17.1,12.3a15.41,15.41,0,0,1,3.29,2.62c-1.15.75-40,5.68-45.14,6.39-28.14,3.87-67.6,9.75-91.06,25-1.39.91-2.55,1.73-3.77,2.68-3.16,2.45-7.58,6.87-9.42,10a32.16,32.16,0,0,0-4.11,8.8c-1.29-.54-4.42-4.31-6-5.57a6.43,6.43,0,0,1-1-.78c-1.15-1.29-2.24-2.08-3.33-3.27L520.13,460c-.58-.61-1-1.12-1.57-1.73l-4.86-5.17c-1.15-1.26-3.94-3.91-4.86-5-.51-.61-1-1.33-1.53-1.9L502.59,441c-.51-.61-1.06-1.26-1.6-1.87l-6.93-8c-.31-.34-.48-.61-.78-.92-1.87-1.9-3-3.4-4.66-5.37-.55-.64-1-1.15-1.53-1.76l-24.75-28.52c-.57-.61-1-1.16-1.53-1.77-1.08-1.33-3.09-3.19-3.94-4.38l-2.31-2.69a39.63,39.63,0,0,1-3.3-3.43c-.61-.72-.85-1.16-1.49-1.8l-6.6-6.77a13.1,13.1,0,0,0-1.59-1.7l-6.77-6.56c-.58-.54-1.05-1.12-1.63-1.66a13.64,13.64,0,0,1-1.7-1.7ZM270.5,416v1.19c.92,1.22,1.8,3,2.72,4.48L280,433c.48.82.89,1.56,1.4,2.35,2.68,4,5.4,9.31,8.22,13.56,1.43,2.14,4,6.66,5.44,9,.89,1.46,1.84,3.13,2.75,4.56l2.11,3.33c.24.37.48.78.72,1.15.47.78.91,1.57,1.36,2.25,1.86,2.82,3.63,6,5.54,8.93,2.21,3.34,4.79,7.89,7,11.36,2.75,4.28,5.57,9.14,8.33,13.49,1,1.53,1.93,3.13,2.78,4.52l9.86,15.57a12.84,12.84,0,0,0,.75,1.12l4.93,7.72c.47.75,1,1.56,1.46,2.28,2.45,3.63,5.33,8.56,7.85,12.1l6.59,9.92c.28.38.45.68.68,1l2.32,3.33h.4l42.08-21c4.35-2,10.17-5,14.25-6.83l14.48-6.63c.88-.37,1.56-.68,2.38-1.05s1.63-.68,2.51-1.09c3.33-1.46,6.49-2.68,9.82-4.11,4.63-1.94,10.37-4.08,15.2-5.92,7.68-2.95,18.52-6.46,26.51-8.63,3.67-1,7.38-2,11.18-2.89,12.31-3,8.33-1,19-1.56,12.24-.68,24.3-1.74,35.83-6.22a63.39,63.39,0,0,0,13.86-7.24l4-3.1c.75-.47,1.49-.88,2.21-1.25,10.84-5.58,22.91-8.47,34.84-10.95,12.61-2.58,24.44-3.81,37.22-5,4.31-.4,8.94-.51,13.12-.91,5.88-.58,21.55-.82,27.36-.82,4.35,0,9.45-.31,13.66-.14l13.6.14v-.41c-.58-.68-8.87-14.75-10.23-16.89-.58-.88-1.22-1.84-1.77-2.69-1.43-2.24-5.74-8.63-7.41-10.67-1.15-1.43-1.05-1.15-1.26-3.33-.23-2.82-.3-5.64-.57-8.46-.17-1.74.17-2.52-1.09-3.34l-39.46-28.41c-1-.75-1.67-1.16-2.76-1.87s-1.73-1.26-2.68-1.9l-16-11.12c-2-1.39-3.23-2.14-5.34-3.7-.85-.65-1.8-1.16-2.65-1.81l-2.69-1.9c-1.8-1.12-3.6-2.55-5.37-3.67l-13.39-9.28c-2.45-1.77-5.3-3.5-8.09-5.54-3.91-2.86-9.52-6.29-13.36-9.14-2.58-1.94-5.54-3.78-8-5.65-1.39-1.05-10.16-6.83-10.64-7.58H560c-1.69,1-14.82,2.32-17.94,2.49-1.57.06-3.37.06-4.9.2s-3.36,0-4.89.1a81.17,81.17,0,0,1-10-.07c-3.13-.2-7,0-10.2,0-10.06,0-20-.13-29.85.68-12.67,1-27.43,4.76-36.88,11.7l-7,5.64-2.58,2.58c-.51.51-.68.89-1.16,1.43l-2.24,2.79c-1.46,1.83-2.31,3.36-3.09,4.38l-4.56-3.19c-.78-.51-1.53-1.06-2.31-1.57s-1.43-.95-2.28-1.46a66.3,66.3,0,0,0-40.68-8.33c-9.49,1-18.49,3.78-27.3,7.18-1.87.71-3.57,1.52-5.37,2.27l-10.33,4.86c-6,3.23-12.51,6.9-18.22,10.47l-10.47,6.77c-1.6,1-3.09,1.9-4.59,3-.71.54-1.63,1.05-2.34,1.49s-1.53,1-2.25,1.5-1.43.92-2.34,1.53-1.5,1-2.31,1.56c-.38.27-.85.55-1.23.78s-.68.51-1.09.79l-4.62,3a10.91,10.91,0,0,0-3.81,3.77A33.59,33.59,0,0,0,279,405.49a19.87,19.87,0,0,1-.65,3.1c-.3.57-3,1.42-4.62,3-3.57,3.4-2,2.51-3.2,4.31Z" transform="translate(-90.94 -142.68)"/><path class="cls-2" d="M353.85,532.45c-1.87-2.76-3.71-5.64-5.61-8.47-3.67-5.54-7.69-11.45-11.08-17-.92-1.49-1.91-2.75-2.79-4.24s-1.84-2.72-2.75-4.29c-3.54-5.91-7.31-11.25-10.88-17.09-1.84-3-3.6-5.71-5.44-8.6-4.42-6.94-9.21-14.76-13.66-21.49-2.72-4.14-5.44-8.66-8.2-12.74-1.83-2.76-3.74-6.09-5.5-8.53-1.91-2.66-3.67-5.65-5.54-8.54-.92-1.42-1.87-2.85-2.86-4.18-2.82-3.87-1.66-2.82-1.8-4.79a12.22,12.22,0,0,0-4.08,3.37c-.75,1.36,1,3,2.11,4.92,2.65,4.7,5.78,9.18,8.39,13.84.92,1.63,1.81,3,2.76,4.55,3.57,6.12,7.78,12.51,11.18,18.39,1.77,3.1,3.71,6.19,5.61,9.18,8.05,12.81,15.87,26.17,24.06,38.92l15.81,24.81c3.87,5.78,7.68,12,11.69,17.88l5.85,8.91,4.76-2.35c1.6-.78,3-1.49,4.59-2.31,3.12-1.6,6.15-3,9.17-4.59,4.39-2.31,9.42-4.59,13.87-6.93,1.57-.82,3-1.5,4.59-2.31,3-1.6,6.29-3,9.35-4.59s6.29-2.86,9.38-4.39,6.32-2.92,9.48-4.28,6.29-2.89,9.49-4.28A425.68,425.68,0,0,1,476,506.14c7.11-2.28,14.11-4.32,21.59-6.15,4.82-1.19,7.07-1.77,12-1.77,4.39,0,9.21.07,13.5-.2,16.55-1,31.4-4.76,42.79-12.55,1.43-1,2.62-2,3.94-3.09a22.29,22.29,0,0,1,4.35-2.52c16.42-7.71,37.22-11.52,55.31-13.76,4.11-.51,8.29-.89,12.51-1.26s8.43-.85,12.67-1c13.47-.72,27-.89,40.49-.92,2.95,0,11.25,0,13.73-.14-.44-1.22-6.36-10.81-7.14-12-2.07-3.33-3.77-5.57-5.74-8.6a15.7,15.7,0,0,0-2.08-2.82,56.7,56.7,0,0,0,2,8.87c.51,1.7,2.34,6.9,2.48,8.12-17.88.48-35.79.11-53.67.11-2.28,0-4.28.2-6.46.34s-4.32.13-6.46.27c-4.18.3-8.15.61-12.27,1.12a208.84,208.84,0,0,0-22.74,4.05c-12.4,2.95-27.63,9-38.27,15.56-2.92,1.8-1.43,1.46-4.39.38a20.46,20.46,0,0,0-5.74-1c-10.61-.51-24.17,2-31.1,9-4,4-.48,3.16-6.32,3.87a228.92,228.92,0,0,0-35.69,7.92c-6.94,2.21-13.46,4.32-20,6.9-6,2.42-13,5.34-18.79,8-6.22,2.88-12.21,5.71-18.15,8.8s-12,5.88-17.68,9.18c-2.85,1.66-6,3.06-8.84,4.65-1.39.78-2.92,1.6-4.38,2.35s-2.89,1.56-4.32,2.28l-8.87,4.62c-1.6.85-7.72,4.15-9.08,4.42l-11.35-16.76Z" transform="translate(-90.94 -142.68)"/><path class="cls-2" d="M385.76,507.94a441.65,441.65,0,0,1,55.92-25.73c24.84-9.25,58.7-17.74,85-7,2.07.85,3,1.84,4.89.72l-.47-.41a33.37,33.37,0,0,0-4-2c-21.93-9.28-41.2-8.5-64.11-2.17a217.54,217.54,0,0,0-30.22,11.11l-9.48,4.32c-6.09,2.68-16.73,8.16-23,11.42l-13.67,7c-3.16,1.56-6,3.12-9.18,4.58-1.56.72-3.05,1.47-4.65,2.25s-3.33,1.43-4.62,2.24v3.4L385.69,508Z" transform="translate(-90.94 -142.68)"/><path class="cls-2" d="M536,475.07c.81,0,1.15-.92,1.63-1.43a90,90,0,0,1,26.51-21c29.85-16,67.34-22.5,101.53-25.05,8-.62,15.94-.92,24-1.36l0-3.44c-1-.1-9.31,1.36-11.08,1.64-11,1.63-23,3.09-34.16,4.62-26.35,3.57-59.69,8.73-83.11,19.92a64.67,64.67,0,0,0-12,7.27l-6.7,6.22a31,31,0,0,0-5.07,7.85c-.4.95-1.56,3.84-1.52,4.83Z" transform="translate(-90.94 -142.68)"/><path class="cls-2" d="M368.12,521.13c1.22-.51,3.06-1.73,4.32-2.41,21.41-12.14,44.19-24,67.44-32.6,13.15-4.9,26.85-9.14,41.87-11.49,13.9-2.18,30.9-2.35,44.46,2.45,1,.34,1,.34,2.18-.14l.17-.07c-1.7-1.15-7.38-2.95-9.86-3.6-40.75-10.5-97.32,16.49-133.48,35.83-1.23.64-16.28,8.9-17.06,9.65v2.41Z" transform="translate(-90.94 -142.68)"/><path class="cls-2" d="M286,395.13a8.56,8.56,0,0,0-1.29,2c-.3.75.38,1.33.85,2l28.35,42.28c3.43,5.1,6.83,10.17,10.23,15.3s6.9,10.3,10.3,15.36c2,2.93,30.25,45.48,31,46-.21-1,.2-2.07,0-3.09a8.46,8.46,0,0,0-1.19-1.94C356,500.46,286.75,395.84,286,395.13Z" transform="translate(-90.94 -142.68)"/><path class="cls-2" d="M537.5,474.94c1.7,0,1.63-.48,3.74-2.55.64-.62,1-1,1.59-1.57s1-.95,1.6-1.42c1.16-1,2.11-1.84,3.33-2.83,33.08-26.95,88.14-34.43,130.36-36.94,1.59-.11,11.11-.38,11.72-.62a6.16,6.16,0,0,0-.13-2.1c-29.54,1-61.49,4.28-88.28,11.83-12.06,3.39-25.35,8-36.06,14-11.29,6.32-18.39,11.45-26.51,20.56A11.85,11.85,0,0,0,537.5,474.94Z" transform="translate(-90.94 -142.68)"/><path class="cls-2" d="M368.05,523.92c1.36-.68,2.82-1.6,4.18-2.38,9.49-5.48,20-11.08,29.81-15.94,23.56-11.7,50.48-23,77-27.84,11.56-2.11,24.27-3.06,36.17-1.5,1.93.27,3.73.55,5.67.95,1.6.34,3.77,1.12,4.69.72l.41-.24a82,82,0,0,0-22.5-3.84c-38.17-1.33-85.83,20.8-118.63,38.75-1.32.71-15.87,8.7-16.79,9.48Z" transform="translate(-90.94 -142.68)"/><path class="cls-2" d="M551.6,474.87c1.19.27,1.57-.55,3.23-1.94,6.7-5.57,16-9.79,24.34-12.54,32.29-10.57,79.67-12.37,113.73-12.58a12.51,12.51,0,0,0-.54-2.24c0-.07,0-.07-.07-.1-3.87-.11-15.81.54-20.53.74-27.84,1.09-68.73,2.89-93.71,12.51a79.78,79.78,0,0,0-23.63,13.53Z" transform="translate(-90.94 -142.68)"/><path class="cls-2" d="M367.44,545.23a78,78,0,0,0,8.19-4.66c7.92-4.69,16.59-9.79,24.58-14.17,26.14-14.28,61.39-32.94,90.18-38.72,6.05-1.22,17.13-2.75,23.18-1.12.07-.44-.34,0,.24-.44-.28-.34.27-.14-.58-.41l-2-.41a42.67,42.67,0,0,0-9-.64A70,70,0,0,0,490.45,486c-28.65,5.2-65.26,24.57-90.41,38.44-8.16,4.49-16.52,9.49-24.51,14.24-1.39.82-2.65,1.57-4,2.42-1.19.71-2.76,1.8-4,2.38l-.1,1.8Z" transform="translate(-90.94 -142.68)"/><path class="cls-2" d="M334.71,489.42l-16.22-23.7c-3.43-5.09-7.44-10.67-10.8-15.73-1.77-2.69-3.57-5.27-5.37-7.86L280.8,410.8c-.41,1.39,0,1.49.61,2.44l72.95,109.45c.64,1,10.09,15.37,10.6,15.81a5.44,5.44,0,0,0,.17-1.53c.1-2.72.24-2.79-.78-4.28s-1.77-2.62-2.69-3.91c-1.83-2.62-3.53-5.2-5.37-7.82-3.63-5.24-7.14-10.54-10.81-15.74s-7.1-10.47-10.81-15.74Z" transform="translate(-90.94 -142.68)"/><path class="cls-2" d="M367.58,542.54c.64-.13,7.1-4.18,8.19-4.82,12.68-7.72,28.11-16.45,41.23-23.36,21.58-11.28,50.07-25,74.07-29.23,6.66-1.19,17.3-2,23.35.34.27-.54.47-.3.71-1-5.1-.85-5.51-1.32-11.42-1.63-11-.58-23,2.14-33.14,5.47a265.35,265.35,0,0,0-36.3,15.5c-11.56,5.88-22.74,11.8-33.76,18.05-1.63.95-31.17,17.61-32.83,18.83l-.07,1.91Z" transform="translate(-90.94 -142.68)"/><path class="cls-2" d="M367.65,539.69a34.84,34.84,0,0,0,4.24-2.42c12.51-7.1,24.58-14.27,37.36-21.17,2.86-1.57,5.64-3.06,8.46-4.59,5.61-3.06,11.36-6,17.1-8.87,20.06-10,46.81-22.13,70.46-20.5a54.87,54.87,0,0,1,9.76,1.57,1.87,1.87,0,0,0,.68.1l.44-.17c-.24-.38,0-.07-.24-.24l-1-.27c-.47-.1-.85-.21-1.29-.27a59,59,0,0,0-8.5-1.13c-11.59-.74-22.94,1.43-33.75,4.56-30.59,8.87-67.33,29.91-95.61,45.89l-8.13,4.65v2.93Z" transform="translate(-90.94 -142.68)"/><path class="cls-2" d="M539.94,474.63c.72,0,.79,0,1.19-.34l2.42-2.18c31.57-27.53,82.76-36.2,123.72-39.46,3.74-.3,7.52-.54,11.25-.75,1.7-.1,10.78-.34,11.53-.64a5.12,5.12,0,0,0-.14-1.36c0-.07,0-.07,0-.14-1.84-.1-4.18.14-6,.21-25.66,1.15-56.08,4.48-80.18,11.08-19.28,5.27-35.08,11.49-50.68,22.36a94.16,94.16,0,0,0-13,11.15Z" transform="translate(-90.94 -142.68)"/><path class="cls-2" d="M312.72,448.25c7.07,10.06,14,20.36,21,30.53,3.54,5.1,6.9,10.16,10.47,15.22.38.51,20.4,30,21.14,30.56-.17-1.32.24-2-.44-3l-9.11-13.29c-7-10.06-13.83-20.43-20.87-30.53l-20.8-30.42c-1.8-2.58-30.46-44.83-31.24-45.55-.81,2.62-.88,1.84.92,4.39.92,1.29,1.73,2.55,2.62,3.84C295.25,422.56,303.91,435.71,312.72,448.25Z" transform="translate(-90.94 -142.68)"/><path class="cls-2" d="M364.79,543.6c0-1,.2-2.18.2-3.2s-3.19-5.3-3.84-6.22l-48.4-72.6c-3.64-5.44-7.14-10.74-10.77-16.18-.34-.55-21-31.82-21.55-32.23-.28.68,1.8,3.37,2.27,4,.95,1.32,1.74,2.68,2.65,4.07l15.88,24.44c4.18,6.73,9,13.8,13,20.53l5.23,8.26c.89,1.33,1.74,2.69,2.62,4.12,3.43,5.61,7,10.81,10.47,16.38,8.46,13.7,17.78,27.19,26.72,40.62.92,1.39,1.77,2.72,2.68,4a44.67,44.67,0,0,0,2.76,4Z" transform="translate(-90.94 -142.68)"/><path class="cls-2" d="M356,515.83c-1.83-2.55-3.6-5.14-5.37-7.72-8.73-12.78-17.78-25.66-26.65-38.37-7.17-10.27-14.17-20.5-21.34-30.77q-5.35-7.7-10.71-15.43l-10.67-15.29c-.48,1.9-.27,1.53,1.66,4.35l29.2,42.55c3.43,5.1,7.31,10.44,10.61,15.5,3.43,5.27,7.17,10.23,10.6,15.5,3.23,4.93,7.27,10.54,10.64,15.5s7.48,10.71,10.6,15.5c1.74,2.65,3.51,5.13,5.31,7.75.78,1.12,4.82,7.24,5.4,7.65-.24-1,.14-2.18-.07-3.2a7.68,7.68,0,0,0-1.29-2l-8-11.53Z" transform="translate(-90.94 -142.68)"/><path class="cls-2" d="M435.15,510.56c2.52-1.26,5.1-2.31,7.72-3.47a259.56,259.56,0,0,1,69.47-19.95c-1.05-.58-4.72-.51-6.18-.51-16.52,0-36.85,7.34-51.77,13.59-16.79,7.07-27.8,13-43.58,21.15-4.79,2.48-9.34,5.16-14,7.71-2.38,1.29-4.55,2.59-6.86,3.91l-6.7,3.91,51.87-26.31Z" transform="translate(-90.94 -142.68)"/><path class="cls-2" d="M368,527c2.72-1.53,5.47-3.13,8.26-4.73l8.39-4.65a517.93,517.93,0,0,1,52.79-25.43c23.8-9.51,57.21-19.85,83.82-13.29,2,.51,1.33-.07,2.45-.2-.88-.75-9.14-1.84-11-2-12-1.26-24.06-.07-35.72,2.14-14.21,2.72-27.09,7.1-39.81,11.86-18.49,6.9-35.38,15.71-52.68,24.82L368,524.73l0,2.25Z" transform="translate(-90.94 -142.68)"/><path class="cls-2" d="M339.2,482.79c1.69,2.58,3.46,5,5.2,7.58C349.53,498,355,505.66,360,513.21c.72,1,4.69,7,5.24,7.55a2.86,2.86,0,0,0-.75-2.55l-19.14-28.52c-6.86-10.17-13.59-20.26-20.39-30.42-3.44-5.1-6.77-10.1-10.2-15.2s-30.12-45.21-30.63-45.55a6.12,6.12,0,0,0-.88,2.38c.07.38,8.67,12.82,9,13.36,3.54,5,7,10.13,10.44,15.26,6.9,10.2,13.87,20.26,20.8,30.43,3.5,5.13,6.9,10.16,10.43,15.26C335.73,477.72,337.53,480.27,339.2,482.79Z" transform="translate(-90.94 -142.68)"/><path class="cls-2" d="M345.08,496.55c-7.14-10.16-13.91-20.32-21-30.52s-13.9-20.39-21-30.52l-18.43-26.79c-.44-.68-.85-1.19-1.29-1.87l-.64-1a5,5,0,0,0-.34-.51L282,405a3.65,3.65,0,0,0-.34,2.55c.38.64.95,1.32,1.36,1.93,6,8.88,12.41,17.78,18.53,26.69,3.5,5.09,7,10.19,10.64,15.33,7.1,10.13,14.1,20.49,21.21,30.59,3.6,5.1,7.1,10.16,10.57,15.26.81,1.19,20.83,30.22,21.31,30.52-.24-1.53.34-1.49-.58-2.75-3-4.11-6.18-9.08-9.18-13.36C352,506.72,348.61,501.58,345.08,496.55Z" transform="translate(-90.94 -142.68)"/><path class="cls-2" d="M367.88,530a47.61,47.61,0,0,1,4.15-2.45c14-8.12,32.33-18,46.74-24.71,28.07-13.12,68.45-30.12,100.61-22.44a1.9,1.9,0,0,0,2.07-.68c-6.39-1.93-16.92-2.34-24-2-26.86,1.46-56.16,12.78-80,23.93-5.85,2.76-11.83,5.61-17.44,8.57-10.37,5.44-19.38,10.37-29.44,16.08-3,1.73-2.89,1.15-2.78,3.67Z" transform="translate(-90.94 -142.68)"/><path class="cls-2" d="M554.93,475.75c.79,0,1.26.31,2-.1l4.79-2.79c2.25-1.26,4.46-2.38,6.77-3.43s4.59-2.14,7.07-3.13c13.86-5.47,24.64-8.12,40.38-10.26a301,301,0,0,1,38.34-2.35c13.39.07,27,.38,40.38.1a12,12,0,0,0-.82-3.19c-13.39.41-26.58.54-39.9,1.32-12.71.75-25,1.87-37.42,3.51-18.16,2.34-39.67,7-55.51,16.14-.82.48-5.58,3.3-6.09,4.22Z" transform="translate(-90.94 -142.68)"/><path class="cls-2" d="M550.14,474.63c.61.1.65,0,1-.37l2.14-1.91c1-.88,1.9-1.6,2.92-2.38,15.57-12.06,35.45-17.16,55.34-19.92,26.21-3.6,53.7-4.35,80.62-5.3a7.4,7.4,0,0,0-.44-2.48c-2.58-.14-17.2.65-20.9.82-18.76.91-41.64,2.48-59.59,5.67-12.3,2.21-23.55,4.86-34.29,9.18a93.93,93.93,0,0,0-14.48,7.34,78.6,78.6,0,0,0-12.27,9.32Z" transform="translate(-90.94 -142.68)"/><path class="cls-2" d="M553.37,475.28c1,.2,1.63-.65,3.3-1.81,16.08-11.08,39.87-16,59-18.66,25.19-3.46,51.91-4.65,77.91-4.93l-.27-1.39c-3.1.31-7.21.14-10.4.2-3.37.07-6.74.14-10.07.24-19.64.65-38.68,1.7-58.09,4.39a204.55,204.55,0,0,0-34.19,7.41,94.82,94.82,0,0,0-14.79,6c-2.58,1.33-11.35,6.6-12.34,8.54Z" transform="translate(-90.94 -142.68)"/><path class="cls-2" d="M367.78,532.86c.78-.28,15.2-8.6,16.69-9.42l16.72-9.11c11.19-6.05,22.71-11.59,34.67-17,21-9.49,48.51-19.31,72.64-17.2a69,69,0,0,1,8.47,1.29c2.41.54,1.29,0,2.27-.17-.23-.34.28-.1-.61-.38l-2-.4c-.89-.17-1.77-.31-2.69-.45-2-.3-3.84-.51-5.85-.64a91,91,0,0,0-12.47,0c-31,2.18-68,19.11-94.8,33.18-5.64,2.95-11.15,6-16.62,8.94-4.59,2.48-12,6.59-16.25,9.24l-.07,2.11Z" transform="translate(-90.94 -142.68)"/><path class="cls-2" d="M542.05,474.56c1.87-.51,1.63-.75,3.6-2.48,1-.88,2.15-1.8,3.23-2.65C565.61,456.55,585,449.14,606,444.07c25.16-6.05,58.16-9.45,84.3-10,0-.78-.1-1.15-.14-1.9-11.69.1-32.46,1.9-44.29,3.43-31.74,4.05-63.8,11.46-90.55,28.59C553.1,465.62,542.8,473,542,474.6Z" transform="translate(-90.94 -142.68)"/><path class="cls-2" d="M367.71,535.92a39,39,0,0,0,4.22-2.38c9.79-5.54,19-10.81,29-16.35,4.59-2.52,12.44-6.84,17-9,5.81-2.82,11.38-5.81,17.3-8.53,18.35-8.4,38.2-16.86,59.28-18.63a69,69,0,0,1,20.83,1.39c1.53.34,1.57.62,2.18-.17-31.41-8.05-73.79,11.8-100.17,24.54-5.74,2.79-11.22,5.82-16.86,8.71-3,1.53-32.46,17.6-32.73,18.39Z" transform="translate(-90.94 -142.68)"/><path class="cls-2" d="M544.19,474.36c1.67.13,1.26-.07,2.18-.85.51-.41,1-.89,1.56-1.33,15.91-14,39-22.06,59.69-26.71a351,351,0,0,1,39.87-6.19c7-.75,14.21-1.33,21.28-1.77,2.55-.17,21.28-.92,21.89-1.19,0-1.39-.07-1.46-.51-1.56a1.43,1.43,0,0,0-.41,0l-10.33.48c-23.46,1.19-49.66,3.94-72.06,9.28-21.28,5.06-39.74,12-56.8,24.58-1.19.88-2.21,1.69-3.3,2.58a23.82,23.82,0,0,0-3,2.68Z" transform="translate(-90.94 -142.68)"/><path class="cls-2" d="M546.61,474.39c1.12.07,1.42-.47,2-.95A82.56,82.56,0,0,1,559.83,465c14.61-9.28,31.64-14.65,49.29-18.15,23.55-4.66,47.17-6.25,71.17-7.44,1.5-.07,10.13-.31,10.74-.48a3.33,3.33,0,0,0-.3-1.73c-3.2-.17-7.62.27-10.91.44-22.57,1.05-49.63,3.53-71,8.33-19.79,4.41-40.15,11.21-56.06,23.31-.64.51-5.67,4.32-6.15,5.14Z" transform="translate(-90.94 -142.68)"/><path class="cls-2" d="M548.48,474.49c1,.11,1.22-.47,1.83-1.05l4.49-3.7c15.4-12.14,35.79-18.12,55.4-21.49,22.91-3.94,57.79-6.25,81.34-6.69-.13-.75-.17-1.06-.34-1.84a44.44,44.44,0,0,0-5.23.14c-25.05,1.05-51.43,2.72-75.8,7.48a178.3,178.3,0,0,0-34.4,10.06A101.8,101.8,0,0,0,561.09,465c-2.11,1.32-11.12,7.51-12.61,9.48Z" transform="translate(-90.94 -142.68)"/><path class="cls-2" d="M341.64,477.18c-5.95-9.25-11.72-19.17-17.57-28.35-1.19-1.83-2.35-3.81-3.54-5.64s-2.24-3.74-3.43-5.61L310,426.36c-1.46-2.24-20.9-31.91-22.06-33a2.45,2.45,0,0,0-1.36,1.06c1,1.83,5.78,8.83,7.31,11.11l40.28,60.74c1.26,1.91,2.48,3.64,3.67,5.51,1.77,2.72,6.15,9,7.34,11.08a18.87,18.87,0,0,0-1.73-2.89C342.83,479.08,342.25,478.1,341.64,477.18Z" transform="translate(-90.94 -142.68)"/></g></g></svg>