<?xml version="1.0" encoding="utf-8"?>
<!-- Generator: Adobe Illustrator 22.1.0, SVG Export Plug-In . SVG Version: 6.00 Build 0)  -->
<svg version="1.1" id="Ebene_1" xmlns="http://www.w3.org/2000/svg" xmlns:xlink="http://www.w3.org/1999/xlink" x="0px" y="0px"
	 viewBox="0 0 50 50" style="enable-background:new 0 0 50 50;" xml:space="preserve">
<style type="text/css">
	.st0{fill:#D9534F;}
	.st1{fill:none;stroke:#D9534F;stroke-width:2;stroke-miterlimit:10;}
</style>
<path class="st0" d="M35.6,13.3c-0.5-0.5-1.4-0.5-2,0l-7.3,7.3l-6,6L13,33.9c-0.5,0.5-0.5,1.4,0,2l1.7,1.7c0.5,0.5,1.4,0.5,2,0
	l7.3-7.3l6-6l7.3-7.3c0.5-0.5,0.5-1.4,0-2L35.6,13.3z"/>
<path class="st0" d="M13,15c-0.5,0.5-0.5,1.4,0,2l7.3,7.3l6,6l7.3,7.3c0.5,0.5,1.4,0.5,2,0l1.7-1.7c0.5-0.5,0.5-1.4,0-2L30,26.6
	l-6-6l-7.3-7.3c-0.5-0.5-1.4-0.5-2,0L13,15z"/>
<circle class="st1" cx="25" cy="25" r="22.7"/>
</svg>
